<?xml version="1.0" encoding="UTF-8" standalone="no"?>
<svg
   xmlns:dc="http://purl.org/dc/elements/1.1/"
   xmlns:cc="http://creativecommons.org/ns#"
   xmlns:rdf="http://www.w3.org/1999/02/22-rdf-syntax-ns#"
   xmlns:svg="http://www.w3.org/2000/svg"
   xmlns="http://www.w3.org/2000/svg"
   id="svg6"
   xml:space="preserve"
   enable-background="new 0 0 200 200"
   viewBox="0 0 200 200"
   y="0px"
   x="0px"
   version="1.1"><metadata
     id="metadata12"><rdf:RDF><cc:Work
         rdf:about=""><dc:format>image/svg+xml</dc:format><dc:type
           rdf:resource="http://purl.org/dc/dcmitype/StillImage" /></cc:Work></rdf:RDF></metadata><defs
     id="defs10" /><rect
     id="rect2"
     fill="#ffffff"
     height="200"
     width="200" /><path
     id="path4"
     d="m113.03 40.043-16.914 0.01368c-13.686-0.0057-16.996 0.0023-17.346 0.04495-0.23718 0.02897-0.61776 0.09347-0.84569 0.14258-0.22753 0.04955-0.62205 0.16106-0.87695 0.24804-0.25451 0.08737-0.64335 0.24714-0.86524 0.35548-0.22189 0.1083-0.56668 0.30581-0.76562 0.43749-0.19893 0.13129-0.53506 0.38377-0.7461 0.56055-0.21142 0.17678-0.53846 0.50156-0.72852 0.72266-0.18966 0.22108-0.46399 0.58168-0.60937 0.80078-0.14498 0.21868-0.36357 0.59623-0.48438 0.83984-0.12122 0.24364-0.28738 0.62384-0.36914 0.84375-0.08209 0.21948-0.2008 0.60006-0.26563 0.84571-0.06484 0.24525-0.15682 0.69972-0.20312 1.0098-0.06277 0.41802-0.08507 0.76115-0.08588 1.3281-0.000793 0.5062 0.02184 0.92826 0.06645 1.248 0.03748 0.26578 0.1045 0.64638 0.14843 0.84571 0.04392 0.19934 0.16186 0.60817 0.26172 0.9082 0.09945 0.30002 0.29507 0.77099 0.4336 1.0469 0.13853 0.27585 0.35442 0.65874 0.48047 0.84962s0.3804 0.52506 0.56445 0.74413c0.18403 0.21867 0.50585 0.54837 0.71485 0.73243 0.209 0.18404 0.54282 0.44483 0.74218 0.57812 0.19934 0.13369 0.59879 0.3575 0.88673 0.49805 0.28794 0.14013 0.72538 0.31917 0.97265 0.39649 0.24726 0.07737 0.6361 0.17599 0.86524 0.2207 0.22913 0.04472 0.48127 0.09358 0.55859 0.10933 0.07772 0.0161 2.1238 0.03955 4.5488 0.05277l4.4102 0.02541 0.0092 2.8691 0.01173 2.8691h-5.3184v12.793l-0.33204 0.22461c-0.18283 0.12484-0.48427 0.34865-0.66992 0.49805-0.18565 0.149-0.51648 0.4411-0.73633 0.64648l-0.40038 0.37304-6.5918 0.01564c-4.6307 0.0115-6.7114 0.02989-6.9941 0.06254-0.22148 0.02575-0.62094 0.07392-0.88672 0.10738-0.26579 0.03346-0.70102 0.09784-0.9668 0.14258-0.26579 0.04507-0.66328 0.11897-0.88476 0.16407-0.22148 0.04507-0.67559 0.15096-1.0078 0.23632-0.33223 0.08542-0.84575 0.23085-1.1426 0.32226-0.2972 0.0914-0.7871 0.25564-1.0879 0.36719-0.30122 0.11152-0.80949 0.3139-1.1309 0.44922-0.32095 0.1353-0.94766 0.42884-1.3906 0.65234-0.44298 0.22391-1.0862 0.57658-1.4297 0.7832-0.3431 0.20698-0.81408 0.50471-1.0469 0.66016-0.23236 0.15504-0.62986 0.43498-0.88476 0.62304-0.25451 0.18848-0.59932 0.45184-0.76563 0.58594-0.16592 0.13411-0.49184 0.40728-0.72461 0.60743-0.23236 0.20013-0.69248 0.62788-1.0215 0.94922-0.32941 0.32136-0.80077 0.81078-1.0488 1.0879-0.24767 0.27666-0.57895 0.65724-0.73438 0.84571-0.15504 0.18846-0.44776 0.56447-0.65234 0.83593-0.20457 0.27183-0.57882 0.80616-0.83007 1.1875-0.25129 0.38176-0.58632 0.92024-0.74414 1.1973-0.15826 0.27666-0.42955 0.78342-0.60352 1.1269-0.17356 0.3431-0.40832 0.8349-0.52148 1.0918-0.11313 0.25733-0.30422 0.72007-0.42384 1.0273-0.1196 0.30766-0.31547 0.86758-0.43749 1.2441-0.12201 0.37653-0.30558 1.0115-0.40626 1.4102-0.10071 0.39868-0.23668 1.0041-0.30273 1.3477-0.06599 0.34311-0.14896 0.82471-0.18359 1.0684-0.03426 0.24364-0.0945 0.70598-0.13282 1.0273l-0.0684 0.58203-0.0215 9.6055-0.0215 9.6055-1.4297 0.0215c-1.2319 0.0185-1.4615 0.0309-1.6523 0.0937-0.12162 0.0402-0.33826 0.13564-0.48242 0.21095-0.14377 0.0758-0.36418 0.22003-0.49023 0.3203-0.12605 0.10025-0.31447 0.29393-0.41797 0.43165-0.10347 0.13731-0.241 0.35666-0.30664 0.48633-0.06519 0.12967-0.15458 0.37349-0.19727 0.54101l-0.07806 0.30274v5.5605c0.000793 4.8309 0.0092 5.5967 0.06254 5.8242 0.03346 0.14377 0.13481 0.40937 0.22461 0.5918 0.10669 0.21584 0.25727 0.43263 0.43164 0.6211 0.1474 0.15947 0.39723 0.37542 0.55469 0.47851 0.15706 0.10267 0.437 0.23945 0.62305 0.30469l0.33789 0.11718 15.818 0.009c13.856 0.009 15.852 0.005 16.107-0.0489 0.16148-0.033 0.45822-0.14145 0.66601-0.24413 0.2972-0.14659 0.4399-0.24891 0.68555-0.49415 0.17075-0.16994 0.37717-0.42851 0.46094-0.57226 0.08335-0.14418 0.20132-0.4068 0.26172-0.58399l0.10933-0.32227 0.01173-5.5371c0.01035-4.9235 0.0057-5.5731-0.05082-5.8594-0.03828-0.19329-0.13852-0.4725-0.24804-0.69922-0.15102-0.31249-0.2395-0.43446-0.51173-0.70508-0.18081-0.18-0.43099-0.38724-0.55663-0.46094-0.12524-0.0737-0.36075-0.18103-0.52344-0.24023l-0.29492-0.12305-1.4707-0.0215-1.4707-0.0195-0.0092-7.4395-0.0092-7.4414h5.377l0.07036 0.63476c0.03863 0.34875 0.10611 0.80695 0.15039 1.0176 0.04426 0.21021 0.12451 0.555 0.17968 0.76562 0.05472 0.21021 0.16142 0.56366 0.23634 0.78516 0.07496 0.22148 0.20455 0.56516 0.28711 0.76367 0.08255 0.19854 0.26563 0.5942 0.4082 0.87891 0.14255 0.28473 0.37015 0.69462 0.50586 0.91211 0.13571 0.21746 0.35728 0.54941 0.49218 0.73828 0.13532 0.18847 0.39537 0.52198 0.57618 0.74024 0.18122 0.21866 0.57005 0.63235 0.86523 0.91991 0.29519 0.28713 0.70976 0.66023 0.91993 0.82813 0.21062 0.16833 0.55346 0.42419 0.76367 0.56836 0.21062 0.14457 0.56146 0.36689 0.7793 0.49414 0.21786 0.12726 0.63422 0.34544 0.92578 0.48438 0.29156 0.13934 0.7332 0.32964 0.98047 0.42187 0.24726 0.0922 0.6365 0.22107 0.86524 0.28711 0.22874 0.0665 0.61949 0.1648 0.86718 0.21875 0.24766 0.0539 0.62898 0.12518 0.84766 0.15821 0.21868 0.033 0.6965 0.0793 1.0605 0.10347 0.45466 0.0302 3.0682 0.0398 8.332 0.0293l7.6719-0.0156 0.48437-0.0684c0.26579-0.0378 0.70174-0.11393 0.96875-0.16796 0.26659-0.0539 0.70409-0.16097 0.97265-0.23828 0.26861-0.0774 0.66734-0.20774 0.88478-0.28908 0.21787-0.0814 0.59421-0.23805 0.83788-0.3496 0.24364-0.11152 0.62422-0.30262 0.84571-0.42383 0.22148-0.12163 0.60925-0.35597 0.86133-0.52148 0.25249-0.16552 0.68773-0.48548 0.9668-0.70899 0.27947-0.22391 0.73504-0.63272 1.0117-0.91015 0.27707-0.27746 0.66323-0.70365 0.85937-0.94727 0.19611-0.24364 0.53669-0.71468 0.75782-1.0469 0.24121-0.36163 0.54593-0.89514 0.75975-1.3301 0.19612-0.39868 0.41877-0.89715 0.49609-1.1074 0.0774-0.21061 0.20658-0.59873 0.28712-0.86329 0.0801-0.26498 0.19728-0.74423 0.26172-1.0664 0.0645-0.32216 0.13714-0.77742 0.16211-1.0098 0.0246-0.23276 0.0536-0.48065 0.0645-0.55273l0.0195-0.13086h9.7285l0.11129 0.67383c0.0612 0.3709 0.18255 1.0544 0.26953 1.5195 0.0874 0.46512 0.25884 1.2998 0.38086 1.8535 0.12161 0.55371 0.31343 1.3695 0.42578 1.8125 0.11198 0.44297 0.31093 1.1808 0.4414 1.6406 0.13048 0.45988 0.35618 1.2128 0.50196 1.6719 0.14618 0.45909 0.39338 1.1863 0.54883 1.6172 0.15504 0.43131 0.41199 1.1103 0.57227 1.5098 0.16027 0.39989 0.40632 0.99114 0.54687 1.3125 0.14014 0.32095 0.50264 1.0719 0.80468 1.6699 0.30203 0.59803 0.70701 1.3592 0.90235 1.6914 0.19532 0.33223 0.56385 0.91973 0.81836 1.3047 0.25451 0.38499 0.63582 0.92754 0.84766 1.207 0.21141 0.27948 0.50832 0.6567 0.66015 0.83788 0.15141 0.18163 0.47207 0.54446 0.71289 0.80664 0.24042 0.26216 0.67151 0.68571 0.95703 0.94141 0.28512 0.25572 0.71127 0.61414 0.94727 0.79492 0.23599 0.18122 0.64369 0.46724 0.90625 0.63477 0.26217 0.16792 0.73052 0.42826 1.041 0.58007 0.31008 0.15183 0.73815 0.3414 0.95116 0.41993 0.21263 0.0782 0.54722 0.18932 0.74415 0.2461 0.19692 0.0571 0.60351 0.14871 0.90234 0.20507 0.38417 0.0725 0.74447 0.10934 1.2285 0.125 0.4019 0.0132 0.88447 0.002 1.168-0.0254 0.26578-0.0258 0.70966-0.0921 0.98632-0.14845 0.27707-0.0568 0.765-0.19136 1.0859-0.29686 0.32135-0.10589 0.80711-0.2928 1.0781-0.41602 0.27061-0.12282 0.65984-0.31802 0.86523-0.4336 0.20537-0.11557 0.55055-0.32585 0.76757-0.4668 0.21746-0.14094 0.57587-0.39226 0.79493-0.55858 0.21947-0.16591 0.59516-0.47075 0.83399-0.67774 0.23881-0.20699 0.69735-0.64678 1.0195-0.97656 0.32216-0.32942 0.77352-0.82691 1.0039-1.1035 0.23035-0.27706 0.58113-0.72054 0.7793-0.98632 0.19853-0.26579 0.54473-0.76391 0.77149-1.1074 0.22671-0.34351 0.57308-0.89628 0.76757-1.2285 0.19451-0.33223 0.54008-0.96523 0.76757-1.4082 0.22794-0.44298 0.54859-1.1066 0.7129-1.4727 0.1643-0.36605 0.45634-1.0586 0.64844-1.5391 0.19248-0.48082 0.49089-1.2758 0.66405-1.7695 0.17357-0.49331 0.41739-1.2244 0.54103-1.623 0.12362-0.39868 0.32368-1.0781 0.44531-1.5098 0.12161-0.4321 0.31112-1.1469 0.42187-1.5898 0.11071-0.44297 0.25886-1.0591 0.32812-1.3692 0.0697-0.31006 0.21511-1.0072 0.32423-1.5488 0.1091-0.54164 0.28734-1.5214 0.39648-2.1758 0.10875-0.6544 0.26287-1.6793 0.3418-2.2773 0.079-0.59803 0.18781-1.5129 0.24218-2.0332 0.0544-0.52071 0.12789-1.2818 0.16211-1.6914 0.0343-0.40996 0.0884-1.1711 0.1211-1.6914 0.033-0.5207 0.08-1.4985 0.10542-2.1738 0.0294-0.77282 0.0395-2.131 0.0254-3.6641-0.0129-1.4211-0.0492-2.8813-0.0859-3.5039-0.0343-0.58674-0.0821-1.3121-0.10542-1.6113-0.0235-0.2992-0.0677-0.86062-0.10152-1.248-0.0334-0.3878-0.10646-1.1132-0.1621-1.6113-0.0555-0.49855-0.1464-1.2404-0.20117-1.6504-0.0547-0.40995-0.16292-1.1542-0.24024-1.6523-0.0774-0.49854-0.21333-1.3037-0.30274-1.791-0.0894-0.48727-0.25213-1.3113-0.36328-1.832-0.11071-0.5207-0.31006-1.3877-0.44336-1.9277-0.13329-0.54042-0.37637-1.4467-0.53906-2.0137-0.16269-0.56741-0.41625-1.4036-0.56445-1.8574-0.14819-0.45424-0.43835-1.2783-0.64453-1.832-0.20618-0.55372-0.52535-1.3613-0.70899-1.793-0.18402-0.4321-0.54496-1.2121-0.80273-1.7324-0.25773-0.52071-0.64707-1.2543-0.86328-1.6309-0.21585-0.37653-0.58325-0.97373-0.8164-1.3281-0.23278-0.35437-0.59789-0.88007-0.81251-1.168-0.21425-0.28793-0.57828-0.75066-0.80859-1.0273-0.23075-0.27706-0.66521-0.75446-0.96485-1.0625-0.30001-0.30766-0.75292-0.74248-1.0078-0.9668-0.2545-0.2243-0.64906-0.54955-0.87499-0.7207-0.22632-0.17155-0.62115-0.4473-0.87891-0.61523-0.25773-0.16832-0.67034-0.41288-0.91798-0.54296-0.24727-0.12966-0.63847-0.3181-0.86718-0.41797-0.22872-0.0999-0.63529-0.25286-0.9043-0.33984-0.26941-0.08703-0.69821-0.20534-0.95312-0.26172-0.2545-0.05599-0.61622-0.1234-0.80469-0.15039-0.18806-0.02656-0.69681-0.04806-1.1289-0.04886-0.55493-0.000402-0.92102 0.02-1.248 0.07036-0.25452 0.03909-0.6984 0.13138-0.98634 0.20508-0.28793 0.07369-0.73902 0.21647-1.0019 0.31835-0.26338 0.10186-0.73435 0.31627-1.0469 0.47656-0.3129 0.16028-0.80382 0.44854-1.0918 0.64063-0.28793 0.1921-0.72316 0.50977-0.9668 0.70508-0.24364 0.19532-0.72032 0.62484-1.0586 0.95507-0.33787 0.33022-0.795 0.81146-1.0156 1.0684-0.22068 0.25693-0.55449 0.66648-0.74415 0.91016-0.18966 0.24364-0.51527 0.68712-0.72264 0.98633-0.207 0.29881-0.54421 0.81425-0.75001 1.1465-0.20578 0.33223-0.53398 0.8956-0.73046 1.25-0.19611 0.35438-0.51116 0.95569-0.69923 1.3379-0.18845 0.38216-0.48052 1.0085-0.64844 1.3906-0.16793 0.38177-0.4313 1.0106-0.58593 1.3984-0.15505 0.3874-0.38561 0.99522-0.51368 1.3496-0.12765 0.35437-0.35571 1.0145-0.50391 1.4687-0.14859 0.45384-0.38557 1.2293-0.52734 1.7207-0.14174 0.4917-0.37461 1.3602-0.51757 1.9316-0.14297 0.57184-0.32266 1.3293-0.40039 1.6836-0.0777 0.35438-0.19872 0.93468-0.26758 1.2891-0.0689 0.35438-0.1348 0.67618-0.14648 0.71484l-0.0195 0.07036h-13.61l-0.41015-0.38086c-0.22511-0.2094-0.58239-0.51722-0.79297-0.68554-0.21021-0.16833-0.55306-0.42081-0.76368-0.56054-0.2102-0.13974-0.46045-0.30252-0.55468-0.36133l-0.17-0.116v-12.447h-5.3164l0.009-2.8691 0.0104-2.8691 4.4297-0.02541c2.4364-0.01288 4.4844-0.03633 4.5508-0.05277 0.0664-0.01656 0.31257-0.06657 0.54492-0.11129 0.23276-0.04472 0.6216-0.14337 0.86524-0.2207 0.24363-0.07772 0.67886-0.25446 0.9668-0.39258 0.28793-0.13812 0.67677-0.35591 0.86524-0.48438 0.18846-0.12806 0.49174-0.36018 0.67577-0.51563 0.18364-0.15584 0.44476-0.40265 0.58007-0.54883 0.13491-0.14618 0.37759-0.44276 0.53907-0.65821s0.39476-0.57045 0.51758-0.78711c0.12243-0.21665 0.29273-0.55693 0.37891-0.75586 0.0866-0.19894 0.22333-0.56667 0.30468-0.81836 0.0813-0.25128 0.191-0.65939 0.24415-0.90625 0.0528-0.24686 0.1191-0.63008 0.14647-0.85157 0.0278-0.2215 0.0497-0.7369 0.0489-1.1465-0.001-0.54647-0.0255-0.89698-0.0878-1.3106-0.047-0.31009-0.1383-0.76453-0.20312-1.0098-0.0648-0.24565-0.18388-0.62623-0.26563-0.8457-0.0817-0.21988-0.24833-0.59812-0.36915-0.8418-0.12081-0.24364-0.33973-0.62349-0.48632-0.84375-0.14658-0.22069-0.4247-0.5824-0.61719-0.80469-0.1925-0.2227-0.49848-0.53246-0.67969-0.6875-0.18162-0.15504-0.46833-0.3781-0.63867-0.49609-0.16995-0.11759-0.45974-0.29661-0.64257-0.39648-0.18324-0.10025-0.53406-0.26266-0.77931-0.36133-0.24523-0.09864-0.64879-0.23129-0.89648-0.29492-0.24766-0.06404-0.63872-0.14918-0.87109-0.18945zm-17.074 5.5996c14.352-0.0023 16.461 0.0057 16.682 0.05668 0.13853 0.03265 0.35712 0.11336 0.48438 0.17774 0.12726 0.06404 0.32584 0.19097 0.44141 0.2832 0.11558 0.0922 0.29868 0.30289 0.40821 0.4668 0.1091 0.16351 0.23878 0.40238 0.2871 0.53125 0.0483 0.12846 0.11655 0.37749 0.15039 0.55469 0.0423 0.22108 0.0547 0.44251 0.0391 0.70508-0.0124 0.2102-0.0513 0.49211-0.0859 0.625s-0.13907 0.39401-0.23048 0.58008c-0.12122 0.24806-0.23667 0.4105-0.43358 0.60743-0.17237 0.17236-0.36298 0.31358-0.5293 0.39453-0.14254 0.06967-0.36597 0.15366-0.49805 0.1875-0.21303 0.05438-2.0996 0.06254-16.715 0.06254-14.597 0-16.501-0.008-16.713-0.06254-0.1321-0.03345-0.35704-0.11973-0.5-0.19141-0.15625-0.07818-0.36862-0.23391-0.52929-0.39258-0.19894-0.19611-0.30997-0.35378-0.4336-0.60547-0.0914-0.18684-0.1947-0.44718-0.22852-0.58008-0.0338-0.13289-0.07277-0.39592-0.08588-0.58398-0.01414-0.19532-0.0034-0.47258 0.02345-0.64454 0.02575-0.16552 0.0899-0.42435 0.14258-0.57617 0.05311-0.15182 0.15677-0.37718 0.23046-0.5 0.07369-0.12283 0.23608-0.32708 0.36133-0.45313 0.12967-0.13046 0.35058-0.29508 0.51367-0.38086 0.15786-0.08255 0.40093-0.17488 0.53907-0.20508 0.20819-0.04507 3.0289-0.05426 16.68-0.05668zm-2.7578 10.83h5.5156v5.7578h-5.5156zm49.109 2.8223v0.0023c0.0886-0.0023 0.3241 0.0146 0.52344 0.03909 0.19934 0.0246 0.51701 0.0883 0.70507 0.14257 0.18847 0.05438 0.52495 0.18471 0.74806 0.29102 0.22269 0.10588 0.57237 0.30564 0.77733 0.44337 0.20457 0.13773 0.5576 0.41089 0.78517 0.60741 0.22753 0.19611 0.55832 0.51759 0.73632 0.7129 0.17801 0.19532 0.49114 0.56343 0.69531 0.81836 0.20417 0.2545 0.54028 0.71725 0.7461 1.0273 0.20619 0.31009 0.49254 0.76222 0.63672 1.0059 0.14417 0.24364 0.38495 0.6702 0.53516 0.94727 0.1506 0.27666 0.39734 0.76457 0.55078 1.0859 0.15343 0.32096 0.41943 0.90995 0.59179 1.3086 0.17236 0.39868 0.42747 1.0254 0.5664 1.3906 0.13853 0.36525 0.38649 1.0635 0.55079 1.5508 0.16429 0.48727 0.4153 1.2842 0.55664 1.7715 0.14177 0.48727 0.33052 1.1662 0.41992 1.5098 0.0894 0.34311 0.24353 0.97804 0.34179 1.4102 0.0983 0.4317 0.26065 1.2016 0.36133 1.7109 0.10025 0.5094 0.24611 1.3063 0.32423 1.7715 0.0777 0.46513 0.19526 1.2274 0.26171 1.6934 0.066 0.46594 0.17533 1.3364 0.24219 1.9336 0.0664 0.59721 0.15843 1.5192 0.20312 2.0508 0.0444 0.53157 0.10864 1.4378 0.14454 2.0137 0.0415 0.67009 0.0722 1.9565 0.0859 3.5742 0.0132 1.5984 0.005 2.9378-0.0254 3.6445-0.0254 0.61453-0.0724 1.5336-0.10543 2.043-0.0333 0.50942-0.0983 1.3355-0.14258 1.834-0.0443 0.49815-0.12452 1.2951-0.17969 1.7715-0.0555 0.476-0.1558 1.254-0.22266 1.7305-0.0668 0.47599-0.18593 1.2478-0.26366 1.7129-0.0774 0.46512-0.20313 1.1717-0.28125 1.5703-0.0782 0.39868-0.21414 1.0506-0.30273 1.4492-0.0882 0.39868-0.26006 1.1207-0.38087 1.6035-0.12122 0.48245-0.3179 1.2165-0.4375 1.6309-0.11961 0.41438-0.32987 1.0968-0.4668 1.5176-0.13733 0.42084-0.36341 1.0727-0.50194 1.4492-0.13893 0.37652-0.34806 0.92109-0.46485 1.209-0.11678 0.28794-0.3297 0.78606-0.47266 1.1074-0.14336 0.32095-0.43838 0.93704-0.65625 1.3691-0.21786 0.4317-0.52493 1.012-0.68359 1.2891-0.15827 0.27666-0.49324 0.81094-0.74414 1.1875-0.25089 0.37653-0.61449 0.88331-0.80859 1.127-0.19411 0.24364-0.54536 0.64157-0.7793 0.88281-0.23397 0.24162-0.5878 0.57505-0.78711 0.74219-0.19934 0.16672-0.50639 0.39654-0.68359 0.51171-0.17719 0.11518-0.46735 0.28292-0.64454 0.3711-0.1772 0.0886-0.4632 0.20648-0.63476 0.26367-0.17156 0.0576-0.45906 0.13374-0.63868 0.16798-0.1796 0.0343-0.51269 0.0606-0.74023 0.0606-0.22753 0-0.56334-0.0283-0.74413-0.0625-0.18123-0.0343-0.48565-0.1179-0.67774-0.18556-0.19248-0.0681-0.45892-0.17729-0.59181-0.24413-0.1329-0.0665-0.39552-0.22173-0.58398-0.34375-0.18806-0.12241-0.4782-0.33228-0.64453-0.4668-0.1659-0.1349-0.49185-0.43635-0.72461-0.66992-0.23236-0.23316-0.60581-0.64912-0.82812-0.92578-0.22229-0.27706-0.55955-0.73114-0.75-1.0078-0.19088-0.27706-0.52924-0.81095-0.7539-1.1875-0.22512-0.37653-0.60682-1.0748-0.84766-1.5508-0.24083-0.4764-0.54794-1.1132-0.68164-1.416-0.13409-0.30284-0.36015-0.84735-0.50391-1.209-0.14337-0.36163-0.36832-0.95506-0.5-1.3203-0.1317-0.36565-0.33967-0.98171-0.46289-1.3691-0.12364-0.3878-0.32566-1.0586-0.44727-1.4902-0.12162-0.43211-0.30551-1.1198-0.4082-1.5293-0.10232-0.40996-0.26616-1.1078-0.36524-1.5508-0.0991-0.44338-0.26071-1.238-0.35937-1.7656-0.0986-0.52754-0.17968-1.0019-0.17968-1.0547v-0.0976l3.6543-0.0137 3.6543-0.0137 0.48829-0.10738c0.26819-0.0592 0.64878-0.16397 0.84571-0.23243 0.19692-0.0681 0.53826-0.21124 0.75975-0.31835 0.2215-0.10715 0.56631-0.30232 0.76563-0.4336 0.19934-0.13128 0.49889-0.34946 0.66602-0.48438 0.16753-0.1353 0.48214-0.42992 0.69921-0.65625 0.21746-0.22631 0.54645-0.6156 0.73048-0.86327 0.18444-0.24806 0.43428-0.61281 0.55469-0.81055 0.12041-0.19733 0.32574-0.56736 0.45702-0.82226 0.1313-0.25531 0.32539-0.66758 0.42969-0.91602 0.10428-0.24846 0.27685-0.71078 0.38477-1.0273 0.10796-0.31693 0.26958-0.86479 0.35938-1.2187 0.0894-0.35358 0.20058-0.8321 0.24608-1.0645 0.0451-0.23277 0.10796-0.59644 0.14063-0.80664 0.0325-0.21062 0.0907-0.6541 0.12696-0.98633 0.0367-0.33223 0.0772-0.97961 0.0917-1.4394 0.0145-0.4603 0.0145-1.2045 0-1.6523-0.0145-0.44822-0.0472-1.004-0.0723-1.2363-0.0249-0.23276-0.0815-0.68686-0.12696-1.0078-0.0459-0.32136-0.12807-0.79917-0.18164-1.0625-0.0536-0.26378-0.16204-0.73478-0.24219-1.0469-0.0801-0.3125-0.24443-0.85776-0.36523-1.2109-0.12122-0.35317-0.31193-0.85167-0.42187-1.1074-0.10957-0.25571-0.30358-0.66455-0.43164-0.9082-0.12807-0.24364-0.33909-0.6148-0.46876-0.82422-0.12967-0.2094-0.37155-0.56286-0.53906-0.78515-0.16753-0.2223-0.48749-0.59232-0.70898-0.82226-0.22148-0.23035-0.54743-0.53363-0.72461-0.67578-0.1772-0.14256-0.44849-0.34262-0.60352-0.44531-0.15504-0.10266-0.42633-0.26474-0.60352-0.35937-0.17719-0.09427-0.48843-0.23397-0.69141-0.3125-0.20295-0.07806-0.54513-0.18817-0.75976-0.24414-0.21506-0.05599-0.59824-0.12908-0.85156-0.1621-0.37653-0.04955-1.0496-0.06059-3.6797-0.06059-2.653 0-3.2207-0.008-3.2207-0.05277 0-0.02943 0.0728-0.37872 0.16015-0.77539 0.0874-0.39707 0.22301-0.99358 0.30274-1.3242 0.0793-0.33102 0.25152-0.99151 0.38281-1.4687 0.13088-0.47762 0.34988-1.2199 0.48437-1.6484 0.13491-0.42847 0.34553-1.0615 0.46876-1.4082 0.12322-0.34673 0.32857-0.90214 0.45702-1.2344 0.12848-0.33223 0.35532-0.88542 0.50391-1.2285 0.1486-0.34351 0.43949-0.96981 0.64648-1.3906 0.20739-0.42082 0.54051-1.0508 0.74024-1.4004 0.19974-0.34954 0.51925-0.87522 0.71094-1.168 0.19128-0.29276 0.49996-0.7332 0.68359-0.98047 0.18404-0.24726 0.52542-0.67015 0.75977-0.93751 0.23477-0.2674 0.60746-0.64564 0.82813-0.8418 0.22109-0.19572 0.5433-0.45645 0.71484-0.58008 0.17196-0.12364 0.44513-0.30035 0.60742-0.39258 0.16229-0.09186 0.42492-0.21959 0.58399-0.28321 0.15907-0.06369 0.4315-0.15325 0.60547-0.20117 0.17437-0.04794 0.4374-0.1022 0.58398-0.11914 0.14699-0.01736 0.33914-0.03426 0.42774-0.03713zm-46.354 8.5332h8.0742v10.506l0.21876 0.08197c0.1196 0.04472 0.53787 0.20858 0.92968 0.36524 0.39144 0.15625 0.89901 0.3741 1.1289 0.48242 0.22994 0.1083 0.57697 0.29933 0.77148 0.42578 0.1949 0.12645 0.50501 0.35742 0.68946 0.51367 0.18444 0.15625 0.49197 0.45769 0.68163 0.66992 0.18969 0.21183 0.5435 0.63504 0.78711 0.93946l0.44337 0.55272 14.16 0.01173 14.162 0.0092 0.30078 0.14843c0.19049 0.09427 0.38576 0.23422 0.53516 0.38282 0.12928 0.12846 0.31391 0.34442 0.41016 0.47851 0.0962 0.13411 0.26506 0.42231 0.37499 0.64258 0.11037 0.22028 0.27389 0.61443 0.36329 0.875 0.0898 0.26055 0.21674 0.69578 0.28319 0.9668 0.0661 0.27102 0.15803 0.71034 0.20313 0.97656 0.0452 0.26619 0.10945 0.72893 0.14453 1.0273 0.0359 0.30364 0.0755 1.0495 0.088 1.6914 0.0137 0.71883 0.005 1.3804-0.0254 1.7715-0.0261 0.34311-0.0747 0.83105-0.10738 1.0859-0.033 0.2545-0.11635 0.73613-0.18361 1.0684-0.0676 0.33223-0.20894 0.86614-0.31444 1.1875-0.10588 0.32095-0.26906 0.73733-0.36328 0.92578-0.0946 0.18806-0.25101 0.4628-0.34766 0.60938-0.097 0.14658-0.30204 0.38472-0.45507 0.52929-0.16511 0.15585-0.38965 0.31789-0.55274 0.39844l-0.27539 0.13476-13.895 0.01954-13.893 0.0215-0.0235 2.8789-0.0234 2.8789-0.088 0.39063c-0.0487 0.21424-0.14368 0.55707-0.21094 0.76367-0.0673 0.20618-0.22024 0.58041-0.33984 0.83008-0.12002 0.24968-0.32123 0.61139-0.44727 0.80468-0.12605 0.19331-0.33212 0.47973-0.45898 0.63477-0.12684 0.15503-0.38271 0.42632-0.56836 0.60352-0.18565 0.17759-0.44862 0.40856-0.58594 0.51367-0.13692 0.10554-0.39994 0.28602-0.58398 0.40039-0.18404 0.11439-0.49793 0.28392-0.69727 0.37695-0.19934 0.0935-0.52527 0.22457-0.7246 0.29102-0.19934 0.0665-0.53548 0.15763-0.7461 0.20312-0.21021 0.0451-0.56931 0.10163-0.79884 0.125-0.27665 0.0282-2.897 0.0415-7.793 0.041-4.5474-0.0004-7.5217-0.0146-7.7578-0.0391-0.21019-0.0217-0.52787-0.0696-0.70507-0.10543-0.17719-0.0354-0.53404-0.13223-0.79297-0.2168-0.25854-0.0846-0.65603-0.24696-0.88477-0.36132-0.22832-0.11439-0.58819-0.32389-0.79882-0.46484-0.2102-0.14095-0.55085-0.40284-0.75586-0.58204-0.20497-0.17921-0.5117-0.49309-0.68165-0.69726-0.16993-0.20377-0.41145-0.52707-0.5371-0.71875-0.12605-0.19128-0.31219-0.51799-0.41406-0.72657-0.10232-0.20859-0.2579-0.59712-0.3457-0.86133-0.08783-0.26457-0.18883-0.61606-0.22266-0.78319-0.0338-0.16713-0.07852-0.46749-0.10152-0.66602-0.0238-0.20981-0.043-1.4412-0.043-2.9473v-2.584l-7.0371 0.01173-7.0371 0.01173-0.26171 0.07415c-0.14377 0.04024-0.4068 0.14356-0.58398 0.22852-0.17719 0.08496-0.43265 0.24472-0.56836 0.35546-0.13571 0.11071-0.33354 0.31534-0.43946 0.45508-0.10588 0.13973-0.25248 0.38429-0.32617 0.54296-0.07404 0.15865-0.16682 0.40479-0.20508 0.54492l-0.07036 0.25392-0.01173 9.0098-0.01173 9.0117h-14.939v-9.2363c0-7.9664 0.0069-9.3243 0.06059-9.8769 0.0338-0.35236 0.09761-0.86893 0.14063-1.1504 0.04311-0.28109 0.13203-0.7547 0.19727-1.0527 0.06565-0.29759 0.19488-0.80183 0.28711-1.1191 0.09186-0.31773 0.24779-0.80341 0.34766-1.0801 0.10025-0.27625 0.27328-0.71108 0.38282-0.96679 0.10991-0.25572 0.36727-0.7927 0.57226-1.1914 0.20497-0.39868 0.51395-0.94989 0.6875-1.2266 0.17358-0.27706 0.44491-0.68475 0.60156-0.90625 0.15665-0.22148 0.45999-0.62094 0.67383-0.88671 0.21344-0.26579 0.60374-0.71793 0.86914-1.0059 0.26538-0.28793 0.64446-0.67037 0.8418-0.8496 0.19693-0.1796 0.52137-0.46752 0.72071-0.63867s0.56105-0.46015 0.80468-0.64258c0.24364-0.18282 0.63482-0.46019 0.86718-0.61523 0.23276-0.15545 0.63027-0.40562 0.88477-0.55664 0.25492-0.15101 0.77159-0.42493 1.1465-0.60937 0.37493-0.18484 0.95328-0.44294 1.2871-0.57422 0.33384-0.13128 0.80713-0.30467 1.0508-0.3828 0.24364-0.07772 0.60428-0.18621 0.80078-0.24219 0.19693-0.05633 0.60464-0.15701 0.90626-0.22266 0.30163-0.06599 0.72808-0.14816 0.94921-0.1836 0.22108-0.03506 0.6288-0.09462 0.90626-0.13086 0.44821-0.05875 1.3701-0.06771 8.3183-0.08197l7.8106-0.01564 0.44336-0.56836c0.24364-0.3129 0.70639-0.83322 1.0273-1.1582 0.44861-0.45345 0.6834-0.65555 1.0156-0.87304 0.2376-0.15584 0.76323-0.4464 1.168-0.64454 0.40472-0.19811 0.89421-0.42985 1.0879-0.51561l0.35351-0.15625v-10.604zm-50.358 56.542h25.168v3.7461h-25.168zm21.463 11.336c-0.26901-0.0115-0.52588 0.005-0.70508 0.0391-0.15504 0.031-0.38866 0.0923-0.51953 0.13867-0.13048 0.0463-0.34975 0.1473-0.48828 0.22461-0.13854 0.0774-0.35254 0.2251-0.47656 0.32618-0.12404 0.10071-0.3166 0.29431-0.42774 0.43163-0.11117 0.13732-0.2732 0.38641-0.35937 0.55273-0.08576 0.16591-0.19541 0.42894-0.24413 0.58399-0.06404 0.20296-0.09485 0.42273-0.10933 0.78516-0.0169 0.41761-0.0057 0.56205 0.06254 0.8496 0.04553 0.19049 0.12728 0.44595 0.18165 0.56836 0.05392 0.12282 0.16318 0.32669 0.24413 0.45313 0.08094 0.12647 0.23359 0.32205 0.3379 0.43359 0.10393 0.11152 0.29043 0.27956 0.41406 0.37501 0.12404 0.0954 0.33505 0.22879 0.46874 0.29686 0.13371 0.0681 0.32092 0.15133 0.41797 0.18556 0.09703 0.0346 0.30017 0.0889 0.45118 0.12109 0.15061 0.0319 0.42757 0.0586 0.61523 0.0586s0.48085-0.0294 0.65039-0.0645c0.16914-0.0351 0.4227-0.10922 0.56445-0.16601 0.14175-0.0568 0.38822-0.18826 0.54688-0.29297 0.15865-0.10473 0.37077-0.27048 0.47265-0.36915 0.10152-0.0991 0.2594-0.27802 0.34961-0.39844 0.09059-0.12 0.23-0.35103 0.31055-0.51171 0.08013-0.16068 0.18415-0.43197 0.23046-0.60352 0.06323-0.23276 0.08462-0.4341 0.08588-0.79492 0.0011-0.33868-0.01931-0.56789-0.07036-0.76562-0.03989-0.15504-0.13299-0.4105-0.20508-0.56836-0.07243-0.15786-0.20356-0.39525-0.29297-0.52734-0.08979-0.13169-0.29927-0.36679-0.4668-0.52345-0.20177-0.18846-0.42538-0.34753-0.66015-0.46875-0.19532-0.10071-0.48879-0.22085-0.6543-0.26757-0.18323-0.052-0.46648-0.0911-0.72461-0.10152zm-8.9199 0.003c-0.19934-0.0103-0.47063-0.00093-0.60352 0.0196-0.13289 0.0209-0.35825 0.0752-0.5 0.12109-0.14216 0.0459-0.35054 0.12875-0.46289 0.18554-0.11278 0.0568-0.28684 0.16046-0.38671 0.22851-0.09945 0.0676-0.27769 0.21462-0.39648 0.32617-0.11881 0.11198-0.29707 0.31466-0.39453 0.45118-0.09784 0.13651-0.238 0.38028-0.3125 0.54297-0.07404 0.1627-0.16716 0.42309-0.20703 0.57812-0.04989 0.19411-0.07231 0.43259-0.07231 0.76562-0.000402 0.37975 0.01863 0.5514 0.08979 0.8047 0.04955 0.17719 0.15126 0.44846 0.22656 0.60351 0.07576 0.15503 0.23059 0.40414 0.34375 0.55273 0.11278 0.149 0.32525 0.37174 0.47265 0.49415 0.14779 0.12243 0.40556 0.29272 0.57227 0.3789 0.16672 0.0866 0.42894 0.19736 0.58398 0.2461 0.20296 0.064 0.42272 0.0948 0.78515 0.10933 0.4176 0.0169 0.56206 0.006 0.84961-0.0625 0.19049-0.0455 0.45088-0.12917 0.57812-0.18555 0.12766-0.0563 0.3537-0.18332 0.50391-0.28319 0.1498-0.0994 0.39024-0.30522 0.5332-0.45704 0.14296-0.15141 0.3276-0.38691 0.41015-0.52343 0.08301-0.13612 0.19375-0.35356 0.2461-0.48243 0.05231-0.12886 0.1266-0.38547 0.16406-0.57031 0.05036-0.24726 0.0622-0.45336 0.04691-0.7832-0.01173-0.24565-0.04955-0.55461-0.08588-0.6875-0.03668-0.13289-0.11918-0.35563-0.1836-0.49415-0.06438-0.13853-0.18428-0.35177-0.26562-0.4746-0.08174-0.12282-0.25922-0.33501-0.39453-0.47071-0.13571-0.13572-0.3656-0.32299-0.50977-0.41601-0.14377-0.0935-0.3736-0.2174-0.51172-0.27539-0.13854-0.0584-0.36539-0.13145-0.50391-0.16407-0.13854-0.0325-0.4159-0.0677-0.61523-0.0782zm-9.0801 0.0996c-0.32578 0.001-0.55379 0.0263-0.76563 0.082-0.16552 0.0435-0.4142 0.13049-0.55274 0.19532-0.13854 0.0648-0.33785 0.17751-0.44336 0.24999-0.10554 0.0721-0.29766 0.23226-0.42773 0.35548-0.12967 0.12283-0.31662 0.33459-0.41406 0.4707-0.09749 0.13651-0.23237 0.36707-0.29882 0.51367-0.06645 0.14658-0.15573 0.41565-0.19923 0.59765-0.05196 0.21586-0.08002 0.47222-0.08002 0.73439s0.02817 0.51851 0.08002 0.73437c0.04346 0.18201 0.13283 0.44809 0.19727 0.58985 0.06404 0.14214 0.18875 0.36406 0.27735 0.49413 0.08898 0.12967 0.24949 0.32486 0.35742 0.4336 0.10749 0.1083 0.28649 0.26699 0.39844 0.35156 0.11198 0.0846 0.35766 0.22396 0.54492 0.31054 0.18686 0.0869 0.46606 0.18947 0.6211 0.22852 0.1933 0.0487 0.4268 0.072 0.74413 0.0704 0.33667-0.002 0.55275-0.0258 0.78712-0.0878 0.17719-0.0471 0.46918-0.16021 0.65039-0.25001 0.18122-0.0898 0.4525-0.26572 0.60352-0.39258 0.15061-0.12644 0.3594-0.33443 0.46289-0.46289 0.10347-0.12806 0.24437-0.34137 0.31444-0.47265 0.06967-0.13087 0.17145-0.36523 0.22461-0.52148 0.05311-0.15624 0.11722-0.43361 0.14258-0.61524 0.02575-0.18644 0.03288-0.46539 0.01759-0.64258-0.01449-0.17195-0.06346-0.44324-0.10738-0.60352-0.04426-0.15987-0.14074-0.41916-0.21484-0.57421-0.0745-0.15504-0.2248-0.40069-0.33594-0.54687-0.11071-0.14658-0.29803-0.34936-0.41601-0.44922-0.11799-0.0999-0.31657-0.24683-0.44141-0.32617-0.12484-0.0793-0.34343-0.18817-0.48438-0.24415-0.14094-0.0555-0.37341-0.12909-0.51757-0.16211-0.15585-0.0362-0.44876-0.0614-0.72461-0.0606zm20.195 8.4902c-0.28512 0.001-0.543 0.0278-0.72461 0.0742-0.15504 0.0394-0.38188 0.11106-0.5039 0.16016-0.12162 0.0496-0.36956 0.18819-0.55078 0.30859-0.18121 0.12041-0.4314 0.33258-0.55664 0.47071-0.12564 0.13812-0.30919 0.38568-0.40625 0.55078-0.09703 0.16512-0.22062 0.43641-0.27539 0.60352-0.05518 0.16713-0.12002 0.42224-0.14258 0.56641-0.02253 0.14418-0.04104 0.35323-0.04104 0.4668-0.000403 0.11312 0.02874 0.36643 0.06254 0.56054 0.0338 0.1941 0.11593 0.48615 0.18359 0.64843 0.0676 0.16229 0.19542 0.40687 0.28321 0.54298 0.08818 0.13612 0.25436 0.34673 0.36914 0.46874 0.11517 0.12162 0.32093 0.30098 0.45704 0.39844 0.13652 0.0975 0.37012 0.23313 0.51952 0.30079 0.1494 0.0676 0.4098 0.15882 0.57813 0.20312 0.20861 0.0552 0.44601 0.0828 0.74804 0.0859 0.30203 0.003 0.54031-0.0193 0.7461-0.0684 0.16631-0.0398 0.48468-0.16006 0.70899-0.26758 0.32417-0.15545 0.47596-0.26008 0.74218-0.50976 0.18404-0.17276 0.41956-0.44289 0.52344-0.60156 0.10393-0.15867 0.23423-0.40513 0.29101-0.54688 0.05679-0.14175 0.13098-0.39531 0.16601-0.56445 0.03507-0.16954 0.0645-0.46422 0.0645-0.6543 0-0.19007-0.02759-0.47759-0.06059-0.63867-0.03346-0.16108-0.10462-0.4041-0.1582-0.54102-0.05392-0.13651-0.16548-0.36038-0.24804-0.49609-0.08209-0.13571-0.25923-0.36518-0.39453-0.50977-0.13532-0.14497-0.36852-0.34917-0.51953-0.45508-0.15061-0.10588-0.41296-0.25065-0.58008-0.32031-0.16753-0.0697-0.42333-0.15218-0.57032-0.18359-0.14698-0.031-0.4673-0.0539-0.71094-0.0528zm-22.33 0.13281c-0.36767-0.0103-0.62314 0.003-0.78906 0.041-0.1349 0.031-0.3809 0.11198-0.54883 0.18164-0.16792 0.07-0.41174 0.2016-0.54102 0.29101-0.12927 0.089-0.33083 0.25479-0.44922 0.36915-0.11799 0.11393-0.29627 0.31895-0.39453 0.45507-0.09784 0.13651-0.23237 0.36903-0.29882 0.51562s-0.15572 0.41564-0.19922 0.59766c-0.05312 0.22149-0.08002 0.4731-0.08002 0.75781-0.000402 0.29318 0.02483 0.52548 0.08002 0.74415 0.04392 0.17517 0.15915 0.48229 0.25781 0.68163 0.09864 0.19934 0.28068 0.48269 0.4043 0.63087 0.12362 0.1482 0.34708 0.36185 0.49609 0.47461 0.14859 0.11312 0.40073 0.26879 0.55859 0.3457 0.15786 0.0769 0.42915 0.1779 0.60352 0.22461 0.24283 0.0656 0.43495 0.0859 0.82032 0.0859 0.43088 0.00039 0.55634-0.0147 0.86523-0.10738 0.19854-0.0597 0.47964-0.17153 0.625-0.24805 0.14498-0.0761 0.3767-0.22944 0.51562-0.3418 0.13934-0.11278 0.35258-0.32721 0.4746-0.4746 0.12201-0.14779 0.29348-0.41266 0.38086-0.58985 0.08737-0.1772 0.19743-0.46734 0.24414-0.64452 0.06162-0.23438 0.08634-0.44849 0.08783-0.78516 0.0011-0.3-0.0215-0.55842-0.0645-0.73438-0.03667-0.14941-0.11393-0.38416-0.17188-0.52148-0.05794-0.13732-0.16992-0.35024-0.24804-0.47266-0.07852-0.12243-0.21683-0.30971-0.30664-0.41602-0.08979-0.10669-0.29102-0.29136-0.44727-0.41015-0.15625-0.11841-0.39251-0.26989-0.5254-0.33593-0.13289-0.0665-0.36839-0.16141-0.52343-0.21095-0.21868-0.0697-0.40413-0.0922-0.82617-0.10347zm11.119 0.1875c-0.327 0.001-0.5581 0.0254-0.76953 0.0801-0.16592 0.0435-0.44585 0.14744-0.62305 0.23241-0.17719 0.085-0.44739 0.25453-0.59961 0.37696-0.15223 0.12241-0.37568 0.34628-0.49609 0.49609-0.12001 0.14981-0.27862 0.39397-0.35352 0.54297-0.07496 0.1486-0.17365 0.38753-0.21875 0.5293-0.04507 0.14134-0.10048 0.40925-0.12305 0.5957-0.02782 0.22954-0.02771 0.45323 0 0.69727 0.02253 0.19771 0.08852 0.50526 0.14649 0.68164 0.0584 0.17638 0.16843 0.42318 0.24413 0.54883 0.07576 0.12604 0.21248 0.32881 0.3047 0.44922 0.09266 0.12001 0.28786 0.31594 0.43163 0.43554 0.14417 0.1192 0.36906 0.27747 0.50196 0.35156 0.13289 0.0745 0.37902 0.18117 0.54493 0.23633 0.16632 0.0555 0.46397 0.12193 0.6621 0.14649 0.26216 0.0325 0.45768 0.0323 0.72266 0 0.19974-0.0245 0.49889-0.089 0.66601-0.14454 0.16713-0.056 0.42638-0.17507 0.57618-0.26367 0.14941-0.0882 0.37812-0.24754 0.50781-0.35547 0.12966-0.10795 0.3298-0.3193 0.44336-0.47069 0.11359-0.15142 0.26994-0.40695 0.34766-0.56642 0.07818-0.15987 0.18026-0.44846 0.22656-0.64257 0.05794-0.24565 0.08324-0.48255 0.08197-0.77735-0.0011-0.28955-0.02794-0.52618-0.08393-0.74609-0.04507-0.17718-0.16307-0.48621-0.26172-0.68555-0.0991-0.19933-0.27734-0.47177-0.39453-0.60546-0.11759-0.13411-0.31158-0.32735-0.4336-0.43165-0.12162-0.10393-0.38464-0.27081-0.58398-0.3711-0.19934-0.10025-0.50646-0.21977-0.68164-0.26366-0.23035-0.0576-0.44768-0.0777-0.78515-0.0762zm13.709 8.2773v0.002c-0.24364-0.008-0.49801-0.007-0.56445 0.003-0.06645 0.0103-0.22844 0.0466-0.36133 0.08-0.1329 0.0338-0.37442 0.12392-0.53711 0.19923-0.1627 0.075-0.40841 0.21504-0.54492 0.3125-0.13652 0.0975-0.33279 0.2689-0.4375 0.38085-0.10428 0.11198-0.27244 0.32786-0.37109 0.48048-0.09864 0.15261-0.22488 0.39454-0.28125 0.5371-0.05633 0.14256-0.12908 0.37537-0.1621 0.51953-0.03346 0.14418-0.0622 0.45279-0.06254 0.68555 0 0.28109 0.02633 0.53295 0.07818 0.75 0.04311 0.18 0.12376 0.42682 0.17773 0.54884 0.05392 0.12201 0.16436 0.32547 0.2461 0.45311 0.08174 0.12766 0.24305 0.33152 0.35742 0.45313 0.11439 0.12122 0.31823 0.30025 0.45313 0.39649 0.13491 0.0967 0.37867 0.23908 0.54296 0.3164 0.1639 0.0774 0.40813 0.16808 0.54102 0.20312 0.13289 0.0351 0.40714 0.0745 0.61132 0.0878 0.22148 0.0142 0.49748 0.005 0.68555-0.0254 0.17236-0.0274 0.46738-0.10727 0.65625-0.17774 0.18927-0.0709 0.473-0.2152 0.63086-0.32031 0.15785-0.10508 0.42394-0.33532 0.58985-0.51172 0.23478-0.24967 0.34645-0.41066 0.50391-0.73243 0.11117-0.22753 0.23282-0.54221 0.27148-0.69726 0.04794-0.19289 0.06956-0.43305 0.0684-0.76367-0.0023-0.40028-0.02-0.54394-0.10738-0.83789-0.05794-0.1949-0.15334-0.44928-0.21093-0.56445-0.05794-0.11474-0.18346-0.31977-0.2793-0.45509-0.09588-0.1353-0.30234-0.36438-0.45899-0.50976-0.17841-0.1651-0.41757-0.33134-0.63866-0.44531-0.1941-0.10025-0.48879-0.22086-0.6543-0.26757-0.19611-0.0555-0.45304-0.0919-0.74219-0.10152zm-27.211 0.14453c-0.20579 0.001-0.49255 0.0279-0.63672 0.0586-0.14377 0.031-0.38305 0.1022-0.53125 0.16014-0.14859 0.0576-0.38336 0.17859-0.52149 0.26759-0.13813 0.0894-0.3676 0.27403-0.50976 0.41015-0.14216 0.13611-0.33018 0.35356-0.41797 0.48243-0.08818 0.12886-0.21331 0.34549-0.27734 0.48242-0.06404 0.13691-0.15216 0.39319-0.19726 0.56836-0.0576 0.22631-0.08048 0.44633-0.08013 0.76367 0 0.30202 0.02391 0.55166 0.07622 0.76952 0.04265 0.17719 0.11768 0.41271 0.16601 0.52345 0.04875 0.11071 0.18703 0.35002 0.30664 0.53125 0.1196 0.18121 0.32868 0.4314 0.4668 0.55664 0.13813 0.12565 0.38763 0.3092 0.55274 0.40625 0.16512 0.097 0.4364 0.2202 0.60352 0.27539 0.16713 0.0552 0.43956 0.12306 0.60547 0.14843 0.16632 0.0253 0.44362 0.0347 0.61719 0.0215 0.17356-0.0132 0.43618-0.0544 0.58398-0.0898 0.14739-0.0359 0.43152-0.14399 0.63086-0.24023 0.19933-0.0959 0.47103-0.26202 0.60352-0.36914 0.1321-0.10715 0.3423-0.31813 0.46875-0.46875 0.12685-0.15101 0.30473-0.42231 0.39453-0.60352 0.08979-0.18122 0.20093-0.4732 0.24804-0.65039 0.06323-0.23881 0.08588-0.44164 0.08588-0.78515 0-0.33868-0.02288-0.54959-0.08393-0.78516-0.04633-0.17719-0.16799-0.49223-0.27148-0.69922-0.13853-0.27586-0.26983-0.46236-0.49414-0.70117-0.16792-0.1792-0.43704-0.40977-0.59571-0.51367-0.15867-0.10393-0.40316-0.23618-0.54492-0.29297-0.14175-0.0568-0.39728-0.13099-0.56641-0.16602-0.16954-0.0351-0.47586-0.0622-0.68164-0.0606zm13.68 0.4961c-0.31492-0.009-0.57375 0.003-0.74413 0.041-0.14376 0.031-0.34011 0.0845-0.43555 0.11914-0.09542 0.0343-0.29666 0.12769-0.44727 0.20703-0.15102 0.0793-0.38009 0.22968-0.50976 0.33398-0.12967 0.10427-0.34035 0.31227-0.4668 0.46289-0.12685 0.15101-0.30278 0.42534-0.39258 0.60938-0.08979 0.18363-0.19944 0.48623-0.24414 0.67187-0.05438 0.22713-0.08209 0.47508-0.08209 0.75977 0 0.2823 0.0269 0.53245 0.08013 0.75391 0.04392 0.18283 0.14183 0.46431 0.21875 0.62499 0.07691 0.16069 0.23634 0.41803 0.35352 0.57227 0.11719 0.15424 0.34105 0.38751 0.49609 0.51758 0.15625 0.13128 0.44358 0.31505 0.64452 0.41211 0.19933 0.0962 0.47062 0.20325 0.60352 0.23828 0.13289 0.0351 0.42305 0.0742 0.64454 0.088 0.28552 0.0169 0.49809 0.007 0.73046-0.0371 0.18042-0.0343 0.45055-0.1114 0.60156-0.17187 0.15102-0.0604 0.38167-0.17349 0.51173-0.25 0.13046-0.0761 0.36367-0.25887 0.51952-0.40625 0.15584-0.147 0.35672-0.37343 0.44531-0.5039 0.08864-0.13048 0.22048-0.36754 0.29297-0.5254 0.07208-0.15786 0.16325-0.41332 0.20312-0.56836 0.04909-0.19088 0.07231-0.43044 0.07231-0.74413 0-0.30848-0.02472-0.55844-0.07231-0.7461-0.03909-0.15505-0.16034-0.46847-0.27148-0.69922-0.17678-0.36686-0.24774-0.46681-0.57031-0.79101-0.22229-0.22269-0.48085-0.43569-0.65039-0.53516-0.15503-0.0906-0.45384-0.2225-0.66406-0.29297-0.32578-0.1083-0.45562-0.12854-0.86719-0.14063z"
     fill="#000000" /></svg>